<svg version="1.1" viewBox="0 0 1000 1000" width="30" height="30" xmlns="http://www.w3.org/2000/svg">
    <path transform="translate(462,42)" d="m0 0h48l32 2 34 4 34 6 36 9 33 11 26 11 16 8 19 10 22 14 14 10 13 10 14 12 12 11 20 20 9 11 8 9 15 20 12 17 13 21 12 21 14 27 13 32 10 31 8 32 6 33 4 37 1 21v23l-2 31-4 28-8 40-8 32-10 30-10 23-8 16-10 19-13 21-14 20-14 18-12 14-12 13-22 22-8 7-13 11-16 12-17 12-19 12-25 14-27 13-28 11-24 8-21 5-36 6-49 7h-61l-25-2-32-5-26-6-29-9-29-11-27-12-20-10-22-13-21-14-19-14-11-9-14-12-13-12-21-21-7-8-12-14-13-17-13-18-12-19-13-23-13-26-11-27-12-36-7-29-5-28-3-26-1-14v-46l3-34 5-32 7-31 9-31 9-25 11-25 12-24 13-22 10-15 10-14 11-14 11-13 18-20 14-14 8-7 10-9 14-11 17-13 24-16 15-9 18-10 26-13 29-12 19-6 30-7 35-7z" fill="#FB3D2C"/>
    <path transform="translate(531,137)" d="m0 0h24l19 2 15 4 16 8 10 8 17 17 6 10 3 10v42l2 10 15 9 15 13 9 10 12 16 12 19 14 26 11 25 7 21 2 11v15h17l10 4 9 7 9 10 8 14 6 18 2 10 1 16-2 18-4 14-7 13-10 11-13 9-13 6-11 3-14 1v56l-1 92-6 18-10 19-12 16-11 12-7 7-14 11-18 11-17 8-16 5-44 1h-26l-13-13-2-3v-15l3-15 6-15-1-6-6-10-7-8-2 15-4 9-7 8-7 6h-29l1 20v12l-13 13-3 2h-66l-17-5-18-8-15-9-12-9-10-9-13-13-11-15-9-16-6-15-4-14-2-13v-43l2-30v-39l-3-18-24-5-12-4-12-6-9-7-7-7-7-12-5-15-2-15v-10l2-15 5-17 8-16 9-12 9-8 8-4 9-2 13-1h57l32 1h168l-152-41-31-8-20-7-11-6-10-8-4-5-2-15v-13l3-14 6-9 6-7 8-7 14-14 11-9 17-13 13-8 19-10 22-8 23-5 18-2h15l3-14 4-10 8-11 8-8 15-10 21-10z" fill="#FEFEFE"/>
    <path transform="translate(260,443)" d="m0 0h481l10 4 6 5 7 11 4 11 1 5v16l-3 13-6 11-7 7-14 7-16 4-16 1-4 1v2h-2l-2 9-1 6 1 122-1 3v12l-4 16-6 14-9 15-10 13-11 11-13 10-17 10-20 8-12 3h-35l1-3 3-3 4-6 2-11v-22l-3-9-9-12-12-14-11-13-10-22-7-6h-7l-11 9-6 9-2 4-2 13v18l3 10 1 6-2 3h-2l-1 3h-2l-6-8-5-14-10-15h-9l-8 7-9 18v50l5 5 2 1v2h-35l-15-4-19-8-15-9-10-8-10-9-9-10-10-15-8-16-5-15-1-6-1-127-3-18-2-7h-2v-2l-19-4-4-2-21-2-8-3-7-6-6-10-4-11-1-6v-16l4-15 7-11 8-7z"/>
    <path transform="translate(462,42)" d="m0 0h48l32 2 34 4 34 6 36 9 33 11 26 11 16 8 19 10 22 14 14 10 13 10 14 12 12 11 20 20 9 11 8 9 15 20 12 17 13 21 12 21 14 27 13 32 10 31 8 32 6 33 4 37 1 21v23l-2 31-4 28-8 40-8 32-10 30-10 23-8 16-10 19-13 21-14 20-14 18-12 14-12 13-22 22-8 7-13 11-16 12-17 12-19 12-25 14-27 13-28 11-24 8-21 5-36 6-49 7h-61l-25-2-32-5-26-6-29-9-29-11-27-12-20-10-22-13-21-14-19-14-11-9-14-12-13-12-21-21-7-8-12-14-13-17-13-18-12-19-13-23-13-26-11-27-12-36-7-29-5-28-3-26-1-14v-46l3-34 5-32 7-31 9-31 9-25 11-25 12-24 13-22 10-15 10-14 11-14 11-13 18-20 14-14 8-7 10-9 14-11 17-13 24-16 15-9 18-10 26-13 29-12 19-6 30-7 35-7zm17 20-39 3-47 9-27 7-23 8-27 12-26 13-22 13-18 12-14 10-16 13-11 9-17 16-14 14-7 8-12 14-12 16-12 17-12 19-10 18-12 23-13 30-9 27-7 30-8 42-3 27v46l3 32 6 36 7 30 8 26 11 29 11 24 10 20 13 22 15 22 13 17 12 14 9 10 25 25 11 9 13 11 14 10 24 16 21 12 23 12 24 11 26 10 29 9 34 8 31 5 21 2h41l30-4 52-8 26-6 35-12 30-13 24-12 25-15 19-13 16-12 11-9 15-13 28-28 9-11 11-13 13-18 12-18 14-24 11-21 13-30 10-30 7-28 6-35 3-31 1-21v-28l-2-33-4-32-6-31-7-25-7-21-10-23-12-25-12-22-12-19-11-16-13-17-9-11-12-14-29-29-11-9-13-11-18-13-22-14-18-10-24-12-27-11-31-10-28-7-35-6-28-3-17-1z" fill="#020000"/>
    <path transform="translate(545,167)" d="m0 0h16l16 4 13 7 11 11 6 10 4 14v21l-3 12-5 8-2 2v7l26 14 11 8 13 11 9 10 11 16 12 21 13 26 10 26 3 13v9l-3 5-3 1h-16l-144-39-44-12-38-10-34-9-29-7-16-5-36-10-5-3-12-3-8-5-1-7 4-7 10-11 11-9 19-14 17-11 21-12 15-7 15-5 15-3 9-1h25l13 1 1-2v-18l3-13 6-10 12-12 9-6 15-5z"/>
    <path transform="translate(479,62)" d="m0 0h40l28 2 30 4 31 6 29 8 29 10 25 11 26 13 23 14 20 14 14 11 13 11 12 11 24 24 9 11 11 13 14 19 15 23 12 21 12 23 11 24 8 21 9 31 6 29 4 28 2 22 1 21v28l-2 34-4 31-6 31-8 29-9 25-15 33-13 24-13 21-12 17-10 13-9 11-12 14-29 29-11 9-13 11-18 13-15 10-22 13-23 12-24 11-24 9-25 8-22 5-72 11-10 1h-41l-29-3-28-5-36-9-36-12-23-10-25-12-24-13-19-12-17-12-12-9-11-9-14-12-29-29-9-11-10-12-13-18-13-20-13-23-12-24-13-32-10-30-8-32-6-33-3-26-1-14v-46l3-27 10-52 7-27 7-20 11-25 12-25 14-24 10-16 12-17 14-18 13-15 12-13 15-15 8-7 14-12 17-13 20-14 20-12 18-10 24-12 29-12 22-7 30-7 37-7zm-2 10-33 3-30 5-29 7-25 8-27 10-33 16-20 11-20 13-17 12-16 13-14 12-15 14-11 11-7 8-13 15-10 13-12 17-11 17-12 21-13 26-11 27-9 27-8 31-6 35-3 33v46l3 33 6 35 8 31 9 27 9 22 12 25 10 19 12 19 11 16 12 16 12 14 18 20 13 13 8 7 15 13 13 10 17 12 17 11 21 12 26 13 27 11 27 9 36 9 30 5 33 3h46l33-3 30-5 36-9 27-9 22-9 25-12 19-10 19-12 16-11 16-12 14-12 20-18 13-13 7-8 13-15 10-13 12-17 11-17 12-21 13-26 11-27 9-27 8-31 6-35 3-33v-46l-3-33-6-35-8-31-9-27-9-22-12-25-10-19-15-24-11-15-10-13-11-13-18-20-13-13-8-7-15-13-13-10-17-12-17-11-21-12-26-13-27-11-27-9-27-7-25-5-33-4-14-1z" fill="#FEFEFE"/>
</svg>