<svg xmlns="http://www.w3.org/2000/svg" xmlns:xlink="http://www.w3.org/1999/xlink" width="16" height="16" viewBox="0 0 16 16">
  <defs>
    <clipPath id="clip-path">
      <rect id="사각형_124773" data-name="사각형 124773" width="16" height="16" fill="none"/>
    </clipPath>
  </defs>
  <g id="그룹_234465" data-name="그룹 234465" transform="translate(-2122 -738)">
    <g id="그룹_234458" data-name="그룹 234458" transform="translate(2076 -90)">
      <rect id="사각형_124761" data-name="사각형 124761" width="16" height="16" transform="translate(46 828)" fill="none"/>
    </g>
    <g id="그룹_234467" data-name="그룹 234467" transform="translate(2122 738)">
      <g id="그룹_234466" data-name="그룹 234466" clip-path="url(#clip-path)">
        <path id="패스_69372" data-name="패스 69372" d="M213.995,149.458a.394.394,0,1,0,.394.394.394.394,0,0,0-.394-.394" transform="translate(-199.474 -139.573)" fill="#8b8b8c"/>
        <path id="패스_69373" data-name="패스 69373" d="M41.717,36.061A5.615,5.615,0,1,0,47.3,41.706a5.615,5.615,0,0,0-5.585-5.645" transform="translate(-33.687 -33.676)" fill="#8b8b8c"/>
        <path id="패스_69374" data-name="패스 69374" d="M7.958,15.926a7.927,7.927,0,1,1,7.969-7.885,7.927,7.927,0,0,1-7.969,7.885M8.042,0A8,8,0,1,0,16,8.041,8,8,0,0,0,8.042,0" transform="translate(0.001 0.001)" fill="#8b8b8c"/>
        <path id="패스_69375" data-name="패스 69375" d="M16.441,149.46a.394.394,0,1,0,.394.394.394.394,0,0,0-.394-.394" transform="translate(-14.986 -139.575)" fill="#8b8b8c"/>
        <path id="패스_69376" data-name="패스 69376" d="M64.928,61.9a.219.219,0,0,1,.1.013.265.265,0,0,1,.052.064,1.028,1.028,0,0,0-.175-.053l.02-.024m.211-1.2a1.056,1.056,0,0,1-.089.428.258.258,0,0,1-.061.046,2.548,2.548,0,0,0,.016-.265c0-.072-.006-.142-.013-.212a.446.446,0,0,0,.071.011.435.435,0,0,0,.076-.013v0m-.3-2.459a.421.421,0,0,0,.07.007l-.017.057a.8.8,0,0,0-.053-.063m.429,1.632a.482.482,0,0,1,.291-.127.268.268,0,0,1,.056.012A1.507,1.507,0,0,0,65.4,60a.385.385,0,0,0-.134-.124m-1.162.639a.742.742,0,0,1,.043.243.99.99,0,0,1-.01.133,1.1,1.1,0,0,0-.314-.407.687.687,0,0,1,.281.031m-.3,1.114c-.012.016-.024.032-.035.049-.025-.029-.049-.058-.076-.086a.407.407,0,0,1,.111.037m.479-2.224a1.33,1.33,0,0,1,.057-.35,2.029,2.029,0,0,1,.086.488s0,.009,0,.015c-.041-.043-.087-.09-.142-.14,0-.005,0-.013,0-.013m-1.786,3.89.222-.094a1.542,1.542,0,0,0,.462-.419c0,.008,0,.02-.006.027l0,.011a.786.786,0,0,1-.459.446.83.83,0,0,1-.275.055l.06-.025m-.453-1.834a1.562,1.562,0,0,0-.295.052.306.306,0,0,1,.105-.039.837.837,0,0,1,.19-.013m-.383-2.081c-.005-.025-.009-.052-.015-.076a1.111,1.111,0,0,0-.251-.518.382.382,0,0,0,.088-.06.993.993,0,0,0,.228.277l.1.069a1.05,1.05,0,0,0-.146.307m1.264,1.71-.051-.023a.267.267,0,0,0,.026-.03c.008.018.016.035.025.053m-.6-1.808.033.007-.027.005-.006-.012m.281,1.065a1.1,1.1,0,0,0-.144-.009,1.252,1.252,0,0,0,.055-.237s0-.018,0-.033a2.812,2.812,0,0,0,.239.169,1.062,1.062,0,0,1-.182.012s.028.092.03.1m5.19-.294-.12-.016a1.7,1.7,0,0,0-1.464.535.935.935,0,0,0,.01-.125A1.339,1.339,0,0,0,66.131,60a1.264,1.264,0,0,0,.648.061,1.475,1.475,0,0,0,.953-.518l.179-.254-.309-.058a3.349,3.349,0,0,1-.457-.149.9.9,0,0,0-.456-.063,1.051,1.051,0,0,0,.271-.512.785.785,0,0,0,.017-.161.96.96,0,0,0-.594-.811l-.237-.105-.036.222a.829.829,0,0,0-.023-.193l-.075-.187-.186.077a2.133,2.133,0,0,0-.52.326.4.4,0,0,0-.4-.309.413.413,0,0,0-.173.041,1.506,1.506,0,0,0-.317-.764l-.077-.059-.023.006-.071.019a1.422,1.422,0,0,0-.76.964,1.569,1.569,0,0,0-.724-.7l-.2-.1-.08.21a2.037,2.037,0,0,0-.118.668,1.354,1.354,0,0,0,.1.538,1.008,1.008,0,0,0,.054.1,1.964,1.964,0,0,1-.341-.323l-.005-.006a1.347,1.347,0,0,1-.241-.4c-.018-.045-.137-.282-.15-.309l-.041-.081-.182.321a1.527,1.527,0,0,0-.189.489.416.416,0,0,0-.171-.04.4.4,0,0,0-.409.395l-.066-.031-.208-.082-.057.216A2.356,2.356,0,0,0,60.4,59a1.7,1.7,0,0,0,.2.831c-.055-.06-.108-.12-.151-.175l-.011-.013-.012-.011a.7.7,0,0,1-.171-.339l-.018-.131L60,59.519a1.3,1.3,0,0,0-.122.554,1.243,1.243,0,0,0,.166.624,1.022,1.022,0,0,0,.569.464.812.812,0,0,0-.406.494,1.6,1.6,0,0,0-.076.466.893.893,0,0,0,.085.4l.15.3.193-.274a.731.731,0,0,1,.187-.164l-.006,0c.015-.007.044-.023.124-.07l.1-.058a1.755,1.755,0,0,0-.123.557.3.3,0,0,0,.022.129.2.2,0,0,0,.215.113,1.952,1.952,0,0,0,1.422-.9.852.852,0,0,1,.218-.242,1.054,1.054,0,0,0-.362.616l-.007.117a.923.923,0,0,0,.039.264l.02.079a.887.887,0,0,1,.017.185c0,.038,0,.063,0,.064l-.005.074a1.227,1.227,0,0,1-.158,0,1.558,1.558,0,0,1-.2-.037c-.114-.026-.171-.039-.193.011-.041.094.1.321.133.364a1.738,1.738,0,0,0,1.328.523,1.069,1.069,0,0,0,.584-.153,1.2,1.2,0,0,0,.648.171,1.747,1.747,0,0,0,1.333-.528c.189-.217.159-.283.148-.308-.038-.086-.187-.1-.4-.026a.771.771,0,0,1-.5-.059.792.792,0,0,1-.463-.438l0-.011c0-.009-.006-.026-.01-.04a.83.83,0,0,0,.227.136,1.9,1.9,0,0,0,.57.132,1.376,1.376,0,0,1,.322.091l.08.032-.059-.342a1.406,1.406,0,0,0-.122-.288,1.888,1.888,0,0,0,.687.18l.1,0,.062-.083a.244.244,0,0,0,.044-.15,1.03,1.03,0,0,0-.126-.412c.086.033.185.065.287.1s.206.063.273.09a1.853,1.853,0,0,1,.22.116.737.737,0,0,0,.233.109l.046-.016c.058-.053.06-.323.06-.354a1.011,1.011,0,0,0-.328-.727,1.1,1.1,0,0,0-.225-.161,2.412,2.412,0,0,0,.367-.173.86.86,0,0,0,.462-.751.48.48,0,0,0-.02-.15Z" transform="translate(-55.922 -52.839)" fill="#fff"/>
        <path id="패스_69377" data-name="패스 69377" d="M134.974,108.874c0,.165.1.244.214.244s.214-.079.214-.244-.1-.244-.214-.244-.214.079-.214.244" transform="translate(-126.047 -101.445)" fill="#8b8b8c"/>
        <path id="패스_69378" data-name="패스 69378" d="M97.513,116.441a.216.216,0,1,0-.214.244c.118,0,.214-.079.214-.244" transform="translate(-90.664 -108.512)" fill="#8b8b8c"/>
        <path id="패스_69379" data-name="패스 69379" d="M76.872,80.689c.118,0,.214-.079.214-.244s-.1-.244-.214-.244a.246.246,0,0,0,0,.488" transform="translate(-71.588 -74.897)" fill="#8b8b8c"/>
        <path id="패스_69380" data-name="패스 69380" d="M132.88,71.907c.118,0,.214-.079.214-.244s-.1-.244-.214-.244-.214.079-.214.244.1.244.214.244" transform="translate(-123.892 -66.695)" fill="#8b8b8c"/>
        <path id="패스_69381" data-name="패스 69381" d="M70.463,63.3a1.552,1.552,0,0,0-1.4.581,1.114,1.114,0,0,1-.238.2,2.953,2.953,0,0,1-.688.285c.016-.106.364-.211.53-.393A.936.936,0,0,0,68.66,62.9a1.208,1.208,0,0,0-.5.886,1.378,1.378,0,0,1-.118.517c-.081.132-.4.228-.512.355a2.2,2.2,0,0,0-.008-1.309c-.028-.077-.09-.143.035-.225.221-.145.51-.532.835-.508.3.022.595.408,1.176.313a1.274,1.274,0,0,0,.822-.436,3.377,3.377,0,0,1-.507-.164,1.142,1.142,0,0,0-.809.056,1.371,1.371,0,0,1-.632.115c-.07-.015.1-.092.1-.092.5-.187.934-.381,1.039-.877s-.462-.749-.462-.749a2.7,2.7,0,0,1-.908,1.636,5.908,5.908,0,0,1-.68.431c.084-.553.648-.48,1.059-1.411a1.634,1.634,0,0,0,.128-.84s-.7.29-.824.834c-.031.182-.065.287-.1.475a1.818,1.818,0,0,1-.254.652s-.033,0,0-.123a2.3,2.3,0,0,0,.14-.516.633.633,0,0,0-.288-.565.715.715,0,0,0-.1.53,3.016,3.016,0,0,1,.142.747.425.425,0,0,1-.139.31c-.052.026-.151-.162-.4-.368a1.883,1.883,0,0,1,.293-1.1,1.6,1.6,0,0,0-.076-1.611,1.26,1.26,0,0,0-.639.94,3.8,3.8,0,0,0,.236,1.327c.022.117.043.331.043.331a1.28,1.28,0,0,1-.33-.282c-.262-.759.081-1.527-.937-2.064a1.6,1.6,0,0,0-.018,1.056c.171.4.8.794.762.979l-.609-.362a3.1,3.1,0,0,1-.78-.634,1.739,1.739,0,0,1-.292-.491s-.485.766.1,1.25c.566.471,1.222.114,1.634.424a2.445,2.445,0,0,1,.78.933c-.09-.011-.172,0-.372-.243a1.529,1.529,0,0,0-.817-.494,3.472,3.472,0,0,0-.7.019,1.249,1.249,0,0,0,1.188.825.989.989,0,0,1,.72.064,1.384,1.384,0,0,1-.139,1.153c-.092-.028-.083-.338-.159-.524a1.181,1.181,0,0,0-1.165-.622s.1.178.191.387.169.532.618.6c.211.034.365.067.437.267a.966.966,0,0,0-.264.443c0-.052-.285-.689-1.479-1-.406-.234-.039-.62,0-1.009a1.831,1.831,0,0,0-.3-.944,1.366,1.366,0,0,0-.253.931,2.784,2.784,0,0,0,.274.835,1.972,1.972,0,0,1-.467-.731c-.073-.242-.057-.586-.121-.821-.094-.584-.788-.855-.788-.855a1.882,1.882,0,0,0,.129,1.273c.2.337.429.411.652.618a5.477,5.477,0,0,1,.607.718c-.165-.054-.1.015-.575-.268a5.356,5.356,0,0,1-1.183-1.058A.308.308,0,0,1,63,62.685a1.1,1.1,0,0,0,.042.985c.331.579,1.069.44,1.591.545,0,0-.345.041-.626.071s-.656.083-.785.5a.941.941,0,0,0,0,.72.891.891,0,0,1,.243-.218,1.829,1.829,0,0,0,.695-.55c.221-.331.361-.366.47-.39a1.033,1.033,0,0,1,.985.318l-.264.054c-.168.035-.734-.109-1.147.283a1.465,1.465,0,0,0-.332.928c1.268-.193,1.251-1.129,1.709-1.157a.331.331,0,0,1,.366.16s-.514.289-.568.7a1.463,1.463,0,0,0,.062.463s.355-.21.436-.439a2.418,2.418,0,0,0,.1-.658.909.909,0,0,1,.206.941,1.039,1.039,0,0,1-1.2.626c-.015,0-.023.013-.009.029a1.55,1.55,0,0,0,1.178.454.833.833,0,0,0,.586-.2.915.915,0,0,0,.645.216,1.55,1.55,0,0,0,1.178-.454c.014-.016.006-.029-.009-.029a1.083,1.083,0,0,1-1.239-.626,1.068,1.068,0,0,1-.022-.539c.006-.025.03-.164.06-.18s.029.057.063.132a.561.561,0,0,0,.377.435,5.139,5.139,0,0,0,.65.149s-.255-.885-1.065-.78c-.01-.005.044-.084.043-.091.027-.039.051-.073.073-.1h0a.776.776,0,0,1,.176-.2.469.469,0,0,1,.306.045,1.144,1.144,0,0,1,.2.276,1.49,1.49,0,0,0,1.033.5c.04-.053-.113-.42-.229-.579A.746.746,0,0,0,68.3,64.7a3.518,3.518,0,0,0-.372.027.235.235,0,0,1-.151-.034,1.374,1.374,0,0,1,.73-.235c.181.023.416.334.783.5.157.069.461.144.621.209a.666.666,0,0,1,.264.154.7.7,0,0,0-.246-.7,1.456,1.456,0,0,0-1.153-.259c-.1,0-.344.018-.344.018.544-.29.861.063,1.676-.41a.635.635,0,0,0,.355-.66" transform="translate(-58.741 -55.91)" fill="#8b8b8c"/>
        <rect id="사각형_124767" data-name="사각형 124767" width="1.339" height="0.212" transform="translate(6.113 15.243) rotate(-69.113)" fill="#8b8b8c"/>
        <path id="패스_69382" data-name="패스 69382" d="M80.469,207.119l-.176-.067a.415.415,0,1,0-.208.5l.192.073-.229.6.2.075.478-1.252-.2-.076Zm-.635.23a.181.181,0,1,1,.234-.1.182.182,0,0,1-.234.1m.513.09-.1-.038a.425.425,0,0,0,.037-.074.445.445,0,0,0,.017-.06l.1.036Z" transform="translate(-74.227 -193.089)" fill="#8b8b8c"/>
        <path id="패스_69383" data-name="패스 69383" d="M113.418,210.739l.356.31.155-.17-.514-.435-.51.439.156.166Z" transform="translate(-105.439 -196.526)" fill="#8b8b8c"/>
        <path id="패스_69384" data-name="패스 69384" d="M110.455,220.2H111v.1h-.486v.17h.973v.082h-.973v.424h1.23v-.17h-.979v-.084h.973V220.3h-.487v-.1h.549v-.174h-1.348Z" transform="translate(-103.15 -205.476)" fill="#8b8b8c"/>
        <path id="패스_69385" data-name="패스 69385" d="M139.334,211.18l.38-.13-.07-.205-.613.209.252.74.621-.212-.069-.2-.388.132Z" transform="translate(-129.836 -196.9)" fill="#8b8b8c"/>
        <path id="패스_69386" data-name="패스 69386" d="M150.236,208.084l-.1.033-.086-.253-.2.068.432,1.266.2-.068-.276-.808.1-.033.275.807.2-.068-.432-1.266-.2.068Z" transform="translate(-139.942 -194.022)" fill="#8b8b8c"/>
        <path id="패스_69387" data-name="패스 69387" d="M52.773,198.992l.205.142.113-.163.282.2.119-.171-.782-.542-.119.171.295.2Z" transform="translate(-49.113 -185.328)" fill="#8b8b8c"/>
        <path id="패스_69388" data-name="패스 69388" d="M49.068,203.185l-.2-.135-.221.319,1.039.719.123-.178-.844-.584Z" transform="translate(-45.434 -189.62)" fill="#8b8b8c"/>
        <path id="패스_69389" data-name="패스 69389" d="M63.847,201.3l.206.143.543-.784-.206-.143-.139.2-.122-.085-.124.178.122.084Z" transform="translate(-59.625 -187.255)" fill="#8b8b8c"/>
        <path id="패스_69390" data-name="패스 69390" d="M58.553,192.3a.375.375,0,1,0-.1-.523.375.375,0,0,0,.1.523m.3-.429a.146.146,0,1,1-.2.037.146.146,0,0,1,.2-.037" transform="translate(-54.529 -178.941)" fill="#8b8b8c"/>
        <path id="패스_69391" data-name="패스 69391" d="M176.543,194.173l-.162-.213-.2.152.464.612.2-.152-.171-.226.139-.105-.131-.173Z" transform="translate(-164.529 -181.131)" fill="#8b8b8c"/>
        <path id="패스_69392" data-name="패스 69392" d="M172.725,205.192l.756-.573.159.21.2-.152-.29-.383-.956.725Z" transform="translate(-161.179 -190.782)" fill="#8b8b8c"/>
        <path id="패스_69393" data-name="패스 69393" d="M164.269,197.948a.376.376,0,0,0,.6-.454.37.37,0,0,0-.125-.1l.1-.076-.132-.174-.269.2-.087-.114-.2.152.087.114-.27.205.132.174.1-.075a.372.372,0,0,0,.067.149m.387-.11a.15.15,0,1,1,.029-.21.15.15,0,0,1-.029.21" transform="translate(-153.126 -184.1)" fill="#8b8b8c"/>
        <rect id="사각형_124768" data-name="사각형 124768" width="1.34" height="0.211" transform="translate(2.343 12.913) rotate(-39.08)" fill="#8b8b8c"/>
        <path id="패스_69394" data-name="패스 69394" d="M33.556,169.214l-.129.1-.128-.157.129-.1L33,168.529l-.167.135.273.337-.558.452.154.19.174-.141.128.157-.49.4.133.164,1.041-.844Zm-.391.317-.128-.158.1-.082.128.157Z" transform="translate(-30.364 -157.383)" fill="#8b8b8c"/>
        <path id="패스_69395" data-name="패스 69395" d="M188.62,174.49l-.154.181-.508-.432-.592.7-.181-.154.746-.877Z" transform="translate(-174.805 -162.402)" fill="#8b8b8c"/>
        <path id="패스_69396" data-name="패스 69396" d="M199.289,183.506l-.85,1-.169-.144.185-.218-.213-.181.155-.182.213.181.094-.111-.213-.181.154-.181.213.181.261-.307Z" transform="translate(-185.131 -171.234)" fill="#8b8b8c"/>
        <path id="패스_69397" data-name="패스 69397" d="M84.731,182.824a.082.082,0,0,0,.005.029.063.063,0,0,0,.065.032c.022,0,.057-.008.057-.041s-.019-.029-.1-.051-.151-.039-.151-.129.088-.147.179-.147.182.037.186.145h-.129a.034.034,0,0,0-.016-.036.071.071,0,0,0-.04-.011c-.019,0-.049.005-.049.03s.066.039.129.056.125.047.125.128c0,.116-.106.153-.205.153-.05,0-.194-.018-.2-.16Z" transform="translate(-78.999 -170.446)" fill="#fff"/>
        <rect id="사각형_124769" data-name="사각형 124769" width="0.137" height="0.445" transform="translate(6.119 12.082)" fill="#fff"/>
        <path id="패스_69398" data-name="패스 69398" d="M96.892,182.679h.14l.129.238h0v-.238h.13v.445h-.133l-.136-.243h0v.243h-.13Z" transform="translate(-90.484 -170.596)" fill="#fff"/>
        <path id="패스_69399" data-name="패스 69399" d="M105.349,182.7a.071.071,0,0,0-.072-.065c-.064,0-.085.062-.085.122s.021.122.085.122c.046,0,.064-.032.072-.074h.135a.191.191,0,0,1-.2.185.233.233,0,0,1,0-.466.182.182,0,0,1,.2.176Z" transform="translate(-98.108 -170.447)" fill="#fff"/>
        <path id="패스_69400" data-name="패스 69400" d="M113.627,182.679h.368v.114h-.231v.055h.21v.106h-.21v.055H114v.114h-.375Z" transform="translate(-106.112 -170.596)" fill="#fff"/>
        <path id="패스_69401" data-name="패스 69401" d="M126.51,183.033h-.1v-.09c.063,0,.125-.022.129-.094h.1v.433h-.129Z" transform="translate(-118.047 -170.756)" fill="#fff"/>
        <path id="패스_69402" data-name="패스 69402" d="M133.337,183.1a.038.038,0,0,0,.019.023.066.066,0,0,0,.03.006c.056,0,.071-.052.078-.087h0a.144.144,0,0,1-.1.034.133.133,0,0,1-.147-.138.165.165,0,0,1,.182-.162.182.182,0,0,1,.183.206c0,.137-.065.237-.2.237a.146.146,0,0,1-.163-.119Zm0-.166a.061.061,0,0,0,.062.059.059.059,0,0,0,.062-.058.06.06,0,0,0-.061-.061.062.062,0,0,0-.064.06" transform="translate(-124.408 -170.684)" fill="#fff"/>
        <path id="패스_69403" data-name="패스 69403" d="M140.853,183.1a.038.038,0,0,0,.019.023.065.065,0,0,0,.03.006c.056,0,.071-.052.078-.087h0a.145.145,0,0,1-.1.034.133.133,0,0,1-.147-.138.165.165,0,0,1,.182-.162.182.182,0,0,1,.182.206c0,.137-.065.237-.2.237a.146.146,0,0,1-.163-.119Zm0-.166a.061.061,0,0,0,.062.059.059.059,0,0,0,.062-.058.06.06,0,0,0-.061-.061.062.062,0,0,0-.063.06" transform="translate(-131.427 -170.684)" fill="#fff"/>
        <path id="패스_69404" data-name="패스 69404" d="M148.189,182.921a.137.137,0,0,1,.054-.113.214.214,0,0,1,.126-.036c.126,0,.168.075.168.112,0,.091-.057.091-.057.093h0a.092.092,0,0,1,.071.1c0,.053-.04.136-.182.136-.195,0-.2-.137-.192-.169h.118a.066.066,0,0,0,.017.052.063.063,0,0,0,.052.019c.036,0,.058-.013.058-.049s-.029-.045-.058-.045a.191.191,0,0,0-.036,0v-.085c.009,0,.019,0,.036,0s.059-.006.059-.039-.031-.038-.057-.038-.061.018-.06.054Z" transform="translate(-138.376 -170.684)" fill="#fff"/>
        <path id="패스_69405" data-name="패스 69405" d="M11.291,120.824l-.008-.176.332-.015-.346-.3-.01-.219.33.3.469-.364.01.221-.349.257.106.1.258-.012.008.176Z" transform="translate(-10.514 -112.11)" fill="#8b8b8c"/>
        <path id="패스_69406" data-name="패스 69406" d="M11.611,109.218l.013-.18.821-.239-.014.182-.182.047-.022.3.173.076-.013.178Zm.488.053.015-.207-.3.079v0Z" transform="translate(-10.843 -101.603)" fill="#8b8b8c"/>
        <path id="패스_69407" data-name="패스 69407" d="M12.62,97.575l-.533.2.035-.2.344-.128-.278-.239.035-.193.433.38.3.054-.031.173Z" transform="translate(-11.288 -90.606)" fill="#8b8b8c"/>
        <path id="패스_69408" data-name="패스 69408" d="M15.3,81.206l-.054.166-.56-.04v0l.477.3-.055.17-.827-.047.054-.167.557.048v0l-.475-.3.051-.157.567.041v0l-.484-.3.054-.164Z" transform="translate(-13.331 -75.412)" fill="#8b8b8c"/>
        <path id="패스_69409" data-name="패스 69409" d="M21.947,70.8a.4.4,0,0,1-.086-.13.349.349,0,0,1-.025-.151.438.438,0,0,1,.146-.294.355.355,0,0,1,.136-.072.39.39,0,0,1,.156-.01.512.512,0,0,1,.16.05.488.488,0,0,1,.133.1.385.385,0,0,1,.084.129.359.359,0,0,1,.024.152.409.409,0,0,1-.045.161.4.4,0,0,1-.1.133.356.356,0,0,1-.135.072.39.39,0,0,1-.154.011.484.484,0,0,1-.158-.048.5.5,0,0,1-.137-.1m.31-.026a.265.265,0,0,0,.094,0,.187.187,0,0,0,.084-.034.209.209,0,0,0,.064-.079.207.207,0,0,0,.024-.1.187.187,0,0,0-.023-.087.269.269,0,0,0-.059-.072.4.4,0,0,0-.084-.056.429.429,0,0,0-.1-.035.273.273,0,0,0-.1,0,.187.187,0,0,0-.085.034.23.23,0,0,0-.088.178.187.187,0,0,0,.024.088.274.274,0,0,0,.061.073.431.431,0,0,0,.088.058.4.4,0,0,0,.1.034" transform="translate(-20.392 -65.501)" fill="#8b8b8c"/>
        <path id="패스_69410" data-name="패스 69410" d="M26.974,57.749l.1-.145.632.021v0l-.446-.3.092-.137.665.446-.1.146-.631-.022v0l.445.3-.092.137Z" transform="translate(-25.19 -53.405)" fill="#8b8b8c"/>
        <path id="패스_69411" data-name="패스 69411" d="M38.865,43.366a.309.309,0,0,1,.112.231.434.434,0,0,1-.348.366.31.31,0,0,1-.236-.1l-.36-.344.122-.127.36.344a.344.344,0,0,0,.053.042.135.135,0,0,0,.056.02.119.119,0,0,0,.063-.011.216.216,0,0,0,.068-.051.168.168,0,0,0,.059-.122.2.2,0,0,0-.071-.118l-.36-.344.122-.127Z" transform="translate(-35.518 -40.177)" fill="#8b8b8c"/>
        <path id="패스_69412" data-name="패스 69412" d="M47.7,34.661l.136-.11.6.206h0l-.339-.417.128-.1.505.621-.137.111-.6-.205h0l.338.416-.128.1Z" transform="translate(-44.541 -31.97)" fill="#8b8b8c"/>
        <rect id="사각형_124770" data-name="사각형 124770" width="0.176" height="0.801" transform="translate(3.853 2.148) rotate(-34.108)" fill="#8b8b8c"/>
        <path id="패스_69413" data-name="패스 69413" d="M62.657,25.351l-.173.1-.621-.568.158-.09.433.4h0l-.121-.579.158-.09Z" transform="translate(-57.771 -22.902)" fill="#8b8b8c"/>
        <path id="패스_69414" data-name="패스 69414" d="M73.228,20.332l.55-.237.059.136-.388.167.068.157.356-.154.054.126-.356.154.078.18.4-.171.059.136-.558.241Z" transform="translate(-68.385 -18.766)" fill="#8b8b8c"/>
        <path id="패스_69415" data-name="패스 69415" d="M84.369,17.138l.414-.123a.264.264,0,0,1,.1-.011.21.21,0,0,1,.15.079.227.227,0,0,1,.04.078.235.235,0,0,1,.006.127.188.188,0,0,1-.07.1v0a.13.13,0,0,1,.1.038.3.3,0,0,1,.064.108l.009.026q.02.054.037.091a.157.157,0,0,0,.041.056l-.169.05a.186.186,0,0,1-.028-.045c-.008-.018-.017-.041-.028-.07s-.019-.047-.025-.06a.154.154,0,0,0-.064-.078.135.135,0,0,0-.1,0l-.169.05.09.3-.169.05Zm.272.3.185-.055a.13.13,0,0,0,.079-.052.112.112,0,0,0,0-.092.107.107,0,0,0-.053-.072.134.134,0,0,0-.095,0l-.185.055Z" transform="translate(-78.789 -15.878)" fill="#8b8b8c"/>
        <path id="패스_69416" data-name="패스 69416" d="M97.544,14.93a.129.129,0,0,0,.068.1.209.209,0,0,0,.132.014.317.317,0,0,0,.051-.013.2.2,0,0,0,.047-.024.1.1,0,0,0,.033-.037.08.08,0,0,0,.006-.05.071.071,0,0,0-.022-.042.119.119,0,0,0-.044-.024.315.315,0,0,0-.057-.012l-.081-.006-.053,0a.932.932,0,0,1-.1-.014.3.3,0,0,1-.079-.028.184.184,0,0,1-.063-.054.2.2,0,0,1-.035-.088.217.217,0,0,1,.007-.108.223.223,0,0,1,.054-.087.322.322,0,0,1,.087-.061.393.393,0,0,1,.105-.034.5.5,0,0,1,.123-.007.3.3,0,0,1,.109.028.225.225,0,0,1,.083.067.247.247,0,0,1,.046.11l-.168.029a.11.11,0,0,0-.061-.085.207.207,0,0,0-.116-.007.158.158,0,0,0-.08.037.075.075,0,0,0-.024.074.069.069,0,0,0,.015.035.072.072,0,0,0,.035.019.441.441,0,0,0,.062.011l.125.011h.025a.72.72,0,0,1,.077.009.328.328,0,0,1,.076.025.2.2,0,0,1,.072.057.206.206,0,0,1,.042.1.228.228,0,0,1-.054.2.379.379,0,0,1-.23.113.49.49,0,0,1-.13.006.327.327,0,0,1-.116-.033.249.249,0,0,1-.09-.075.277.277,0,0,1-.049-.119Z" transform="translate(-90.906 -13.401)" fill="#8b8b8c"/>
        <rect id="사각형_124771" data-name="사각형 124771" width="0.176" height="0.801" transform="translate(7.196 0.904) rotate(-5.107)" fill="#8b8b8c"/>
        <path id="패스_69417" data-name="패스 69417" d="M113.727,13.149l-.24,0,0-.148.656-.012,0,.148-.24,0,.012.652-.176,0Z" transform="translate(-105.978 -12.134)" fill="#8b8b8c"/>
        <path id="패스_69418" data-name="패스 69418" d="M124.723,13.5l-.25-.513.2.018.158.332.214-.3.2.018-.34.465-.028.306-.175-.016Z" transform="translate(-116.24 -12.124)" fill="#8b8b8c"/>
        <path id="패스_69419" data-name="패스 69419" d="M140.947,16.38a.4.4,0,0,1,.11-.11.349.349,0,0,1,.143-.055.438.438,0,0,1,.317.085.353.353,0,0,1,.1.119.387.387,0,0,1,.041.151.516.516,0,0,1-.017.167.492.492,0,0,1-.067.15.383.383,0,0,1-.109.108.36.36,0,0,1-.144.054.438.438,0,0,1-.318-.085.356.356,0,0,1-.1-.118.39.39,0,0,1-.041-.148.483.483,0,0,1,.016-.164.5.5,0,0,1,.069-.154m.087.3a.268.268,0,0,0,.015.093.188.188,0,0,0,.05.076.233.233,0,0,0,.191.05.186.186,0,0,0,.081-.041.262.262,0,0,0,.059-.072.393.393,0,0,0,.038-.094.435.435,0,0,0,.015-.1.271.271,0,0,0-.014-.094.186.186,0,0,0-.05-.076.23.23,0,0,0-.192-.051.186.186,0,0,0-.081.041.272.272,0,0,0-.059.075.433.433,0,0,0-.039.1.4.4,0,0,0-.014.1" transform="translate(-131.544 -15.139)" fill="#8b8b8c"/>
        <path id="패스_69420" data-name="패스 69420" d="M152.756,19.289l.523.208-.055.138-.36-.143-.068.172.312.124-.051.127-.312-.124-.122.307-.164-.065Z" transform="translate(-142.377 -18.014)" fill="#8b8b8c"/>
        <path id="패스_69421" data-name="패스 69421" d="M165.132,27.49l.155.092-.149.842-.157-.093.039-.184-.258-.152-.145.122-.153-.091Zm-.264.414.179.105.063-.3h0Z" transform="translate(-153.586 -25.672)" fill="#8b8b8c"/>
        <path id="패스_69422" data-name="패스 69422" d="M175.694,32.417l.343.262a.266.266,0,0,1,.066.072.21.21,0,0,1,.03.083.212.212,0,0,1-.005.085.226.226,0,0,1-.039.078.237.237,0,0,1-.1.08.189.189,0,0,1-.123,0v0a.129.129,0,0,1,.028.1.3.3,0,0,1-.049.115l-.015.022q-.032.048-.052.083a.156.156,0,0,0-.021.066l-.14-.107a.188.188,0,0,1,.02-.049c.01-.017.023-.038.04-.064s.027-.042.034-.056a.154.154,0,0,0,.026-.1.135.135,0,0,0-.058-.08l-.14-.107-.19.249-.14-.107Zm-.08.395.153.117a.13.13,0,0,0,.089.033.112.112,0,0,0,.077-.051.107.107,0,0,0,.027-.085.133.133,0,0,0-.056-.076l-.153-.117Z" transform="translate(-163.62 -30.273)" fill="#8b8b8c"/>
        <path id="패스_69423" data-name="패스 69423" d="M186.745,40.064l-.174-.166.1-.107.475.453-.1.107-.174-.166-.45.472-.127-.121Z" transform="translate(-173.973 -37.16)" fill="#8b8b8c"/>
        <path id="패스_69424" data-name="패스 69424" d="M195.733,54.741a.33.33,0,0,1-.12-.038.306.306,0,0,1-.093-.083.31.31,0,0,1-.049-.091.242.242,0,0,1-.013-.094.224.224,0,0,1,.1-.167.2.2,0,0,1,.139-.043.383.383,0,0,1,.154.045.478.478,0,0,1,.033-.1.186.186,0,0,1,.056-.067.165.165,0,0,1,.069-.032.18.18,0,0,1,.075,0,.213.213,0,0,1,.071.031.239.239,0,0,1,.058.054.244.244,0,0,1,.056.155.171.171,0,0,1-.075.136.183.183,0,0,1-.115.04.313.313,0,0,1-.13-.032l-.038.159a.292.292,0,0,0,.093-.035l.084.11a.392.392,0,0,1-.1.044.361.361,0,0,1-.1.014l-.052.244-.118-.155Zm.083-.342a.249.249,0,0,0-.092-.031.108.108,0,0,0-.081.022.1.1,0,0,0-.038.072.116.116,0,0,0,.024.082.145.145,0,0,0,.058.047.241.241,0,0,0,.08.017Zm.325-.114a.069.069,0,0,0-.013-.054.071.071,0,0,0-.047-.028.067.067,0,0,0-.053.014.106.106,0,0,0-.034.043.362.362,0,0,0-.019.065.149.149,0,0,1,0,.015.279.279,0,0,0,.078.018.1.1,0,0,0,.063-.022.074.074,0,0,0,.029-.05" transform="translate(-182.53 -50.495)" fill="#8b8b8c"/>
        <path id="패스_69425" data-name="패스 69425" d="M204.494,66.855l.161.306a.354.354,0,0,1,.032.28.4.4,0,0,1-.214.226.552.552,0,0,1-.154.055.362.362,0,0,1-.145,0,.3.3,0,0,1-.128-.062.394.394,0,0,1-.1-.126l-.161-.306Zm-.5.459.073.139a.216.216,0,0,0,.047.061.168.168,0,0,0,.066.037.2.2,0,0,0,.087,0,.337.337,0,0,0,.105-.037.317.317,0,0,0,.15-.138.213.213,0,0,0-.023-.189l-.058-.111Z" transform="translate(-190.307 -62.433)" fill="#8b8b8c"/>
        <path id="패스_69426" data-name="패스 69426" d="M210.073,79.079l.214.559-.138.053L210,79.3l-.16.061.138.362-.128.049-.138-.363-.183.07.154.4-.138.053-.217-.568Z" transform="translate(-195.481 -73.849)" fill="#8b8b8c"/>
        <path id="패스_69427" data-name="패스 69427" d="M213.841,90.928a.129.129,0,0,0-.1.076.21.21,0,0,0,0,.132.3.3,0,0,0,.017.049.2.2,0,0,0,.028.045.1.1,0,0,0,.04.03.079.079,0,0,0,.051,0,.072.072,0,0,0,.04-.026.121.121,0,0,0,.02-.046.315.315,0,0,0,.008-.058c0-.02,0-.047,0-.081s0-.04,0-.053a.96.96,0,0,1,.006-.1.3.3,0,0,1,.021-.081.182.182,0,0,1,.049-.067.2.2,0,0,1,.085-.042.216.216,0,0,1,.108,0,.223.223,0,0,1,.091.047.318.318,0,0,1,.068.082.4.4,0,0,1,.042.1.5.5,0,0,1,.017.122.3.3,0,0,1-.019.11.226.226,0,0,1-.061.088.248.248,0,0,1-.106.054l-.043-.165a.11.11,0,0,0,.08-.068.206.206,0,0,0,0-.116.158.158,0,0,0-.043-.077.075.075,0,0,0-.075-.018.068.068,0,0,0-.034.018.072.072,0,0,0-.016.037.444.444,0,0,0-.006.063q0,.039,0,.125a.087.087,0,0,1,0,.018.022.022,0,0,0,0,.007.724.724,0,0,1,0,.077.329.329,0,0,1-.019.078.205.205,0,0,1-.051.077.209.209,0,0,1-.094.05.228.228,0,0,1-.2-.038.379.379,0,0,1-.131-.22.487.487,0,0,1-.016-.13.325.325,0,0,1,.023-.118.251.251,0,0,1,.068-.1.276.276,0,0,1,.115-.058Z" transform="translate(-199.465 -84.703)" fill="#8b8b8c"/>
        <rect id="사각형_124772" data-name="사각형 124772" width="0.801" height="0.176" transform="matrix(0.985, -0.173, 0.173, 0.985, 14.255, 6.868)" fill="#8b8b8c"/>
        <path id="패스_69428" data-name="패스 69428" d="M216.709,108.079a.27.27,0,0,1-.092-.093.282.282,0,0,1-.036-.116.406.406,0,0,1,.018-.166.359.359,0,0,1,.078-.132.391.391,0,0,1,.126-.089.486.486,0,0,1,.16-.041.5.5,0,0,1,.168.013.4.4,0,0,1,.141.066.346.346,0,0,1,.1.116.406.406,0,0,1,.046.161.382.382,0,0,1-.009.121.346.346,0,0,1-.046.109.29.29,0,0,1-.082.084.3.3,0,0,1-.116.046l-.014-.168a.166.166,0,0,0,.094-.068.174.174,0,0,0,.025-.112.208.208,0,0,0-.031-.1.185.185,0,0,0-.066-.062.271.271,0,0,0-.09-.03.428.428,0,0,0-.105,0,.4.4,0,0,0-.1.021.266.266,0,0,0-.082.046.187.187,0,0,0-.054.073.21.21,0,0,0-.013.1.192.192,0,0,0,.056.13.19.19,0,0,0,.133.045l-.015-.176.131-.011.029.335-.431.037-.01-.112Z" transform="translate(-202.254 -100.334)" fill="#8b8b8c"/>
        <path id="패스_69429" data-name="패스 69429" d="M217.784,120.99l-.007.175-.55.312v0l.537.022-.007.165-.8-.032.007-.176.549-.311v0l-.535-.022.007-.165Z" transform="translate(-202.607 -112.958)" fill="#8b8b8c"/>
      </g>
    </g>
  </g>
</svg>
