<svg xmlns="http://www.w3.org/2000/svg" width="24" height="24" viewBox="0 0 24 24">
  <g id="그룹_200536" data-name="그룹 200536" transform="translate(-1562 -20)">
    <g id="ico_alarm_n" transform="translate(1562 20)">
      <rect id="bg" width="24" height="24" fill="none"/>
    </g>
    <g id="그룹_234246" data-name="그룹 234246" transform="translate(0.3 -0.298)">
      <g id="그룹_24832" data-name="그룹 24832" transform="translate(1563.7 24.298)">
        <path id="패스_21883" data-name="패스 21883" d="M972.874,552.561H954.821a.587.587,0,0,1-.479-.242.532.532,0,0,1-.059-.514l2.043-4.914V542.23c0-.008,0-.12,0-.129a7.586,7.586,0,0,1,15.04.113v4.678l2.043,4.914a.535.535,0,0,1-.059.514A.589.589,0,0,1,972.874,552.561Zm-17.2-1.1h16.349l-1.768-4.257a.532.532,0,0,1-.04-.2V542.23a5.959,5.959,0,0,0-6.24-5.564l-.153,0a5.975,5.975,0,0,0-6.334,5.483l0,4.843a.51.51,0,0,1-.042.2Z" transform="translate(-954.242 -535.561)" fill="#fff"/>
      </g>
      <circle id="dot" cx="3.382" cy="3.382" r="3.382" transform="translate(1576.935 24.624)" fill="#fc526e"/>
    </g>
  </g>
</svg>
