<svg id="그룹_214070" data-name="그룹 214070" xmlns="http://www.w3.org/2000/svg" width="24" height="24" viewBox="0 0 24 24">
  <rect id="사각형_117327" data-name="사각형 117327" width="24" height="24" fill="none"/>
  <g id="그룹_214069" data-name="그룹 214069" transform="translate(3 2.999)">
    <g id="그룹_211836" data-name="그룹 211836" transform="translate(0 0)">
      <path id="패스_59228" data-name="패스 59228" d="M13.77,56.144a11.241,11.241,0,0,1,5.9-1.581,11.13,11.13,0,0,1,6.114,1.724" transform="translate(-10.731 -40.452)" fill="none" stroke="#fff" stroke-linecap="round" stroke-linejoin="round" stroke-width="1"/>
      <path id="패스_59229" data-name="패스 59229" d="M26.067,11.4a11.183,11.183,0,0,1-6,1.652,11.183,11.183,0,0,1-6-1.652" transform="translate(-10.941 -9.101)" fill="none" stroke="#fff" stroke-linecap="round" stroke-linejoin="round" stroke-width="1"/>
      <path id="패스_59230" data-name="패스 59230" d="M25.78,56.286a11.131,11.131,0,0,0-6.114-1.724,11.24,11.24,0,0,0-5.9,1.581" transform="translate(-10.732 -40.452)" fill="none" stroke="#fff" stroke-linecap="round" stroke-linejoin="round" stroke-width="1"/>
      <line id="선_5035" data-name="선 5035" x2="18" transform="translate(0 10.153)" fill="none" stroke="#fff" stroke-linecap="round" stroke-linejoin="round" stroke-width="1"/>
      <circle id="타원_13713" data-name="타원 13713" cx="9" cy="9" r="9" transform="translate(0 0.153)" fill="none" stroke="#fff" stroke-linecap="round" stroke-linejoin="round" stroke-width="1"/>
      <ellipse id="타원_13714" data-name="타원 13714" cx="3.387" cy="9.031" rx="3.387" ry="9.031" transform="translate(5.735)" fill="none" stroke="#fff" stroke-linecap="round" stroke-linejoin="round" stroke-width="1"/>
    </g>
  </g>
</svg>
